<svg width="225" height="65" viewBox="0 0 225 65" fill="none" xmlns="http://www.w3.org/2000/svg">
<rect width="65" height="65" fill="white"/>
<path d="M15.4844 28.2812V21.5312H26.0156V28.2812H24.3125V23.25H21.7188V41.2344H23.9688V43H17.5312V41.2344H19.7656V23.25H17.1875V28.2812H15.4844ZM27.0469 21.5312H32.8281V23.2812H30.9062V41.2344H32.8281V43H27.0469V41.2344H28.9531V23.2812H27.0469V21.5312ZM33.6094 21.5312H38.375L41.7031 39.1562L44.9688 21.5312H49.7656V23.2812H47.8438V41.2344H49.7656V43H44.2969V41.2344H45.9531V25.0469L42.5 43H40.8594L37.4062 24.9844V41.2344H39.0781V43H33.6094V41.2344H35.5156V23.2812H33.6094V21.5312Z" fill="black"/>
<path d="M75.7031 10.2568V5.92383H88.8604V10.2568H87.8672V6.92578H82.8311V17.0068H85.5293V18H79.0342V17.0068H81.7324V6.92578H76.6963V10.2568H75.7031ZM98.291 13.3945C98.2617 12.9961 98.1709 12.6182 98.0186 12.2607C97.8662 11.9033 97.6377 11.5898 97.333 11.3203C97.0283 11.0449 96.6445 10.8281 96.1816 10.6699C95.7188 10.5059 95.1621 10.4238 94.5117 10.4238C93.9023 10.4238 93.3633 10.5059 92.8945 10.6699C92.4258 10.8281 92.0273 11.0449 91.6992 11.3203C91.3711 11.5898 91.1133 11.9033 90.9258 12.2607C90.7383 12.6182 90.6182 12.9961 90.5654 13.3945H98.291ZM94.4941 18.2197C93.7266 18.2197 93.0293 18.1201 92.4023 17.9209C91.7812 17.7158 91.251 17.4258 90.8115 17.0508C90.3721 16.6699 90.0322 16.21 89.792 15.6709C89.5518 15.1318 89.4316 14.5283 89.4316 13.8604C89.4316 13.21 89.5576 12.6152 89.8096 12.0762C90.0615 11.5312 90.4131 11.0654 90.8643 10.6787C91.3154 10.2861 91.8516 9.98438 92.4727 9.77344C93.0938 9.55664 93.7734 9.44824 94.5117 9.44824C95.2793 9.44824 95.9678 9.55664 96.5771 9.77344C97.1865 9.99023 97.7021 10.3037 98.124 10.7139C98.5459 11.1182 98.8682 11.6104 99.0908 12.1904C99.3135 12.7705 99.4248 13.4238 99.4248 14.1504V14.3438H90.5654C90.6064 14.7891 90.7207 15.1904 90.9082 15.5479C91.1016 15.9053 91.3652 16.21 91.6992 16.4619C92.0332 16.7139 92.4316 16.9072 92.8945 17.042C93.3633 17.1768 93.8965 17.2441 94.4941 17.2441C95.0684 17.2441 95.5664 17.1973 95.9883 17.1035C96.416 17.0098 96.7764 16.8838 97.0693 16.7256C97.3682 16.5674 97.6084 16.3887 97.79 16.1895C97.9775 15.9902 98.1211 15.7852 98.2207 15.5742H99.3193C98.9736 16.4648 98.3848 17.1299 97.5527 17.5693C96.7266 18.0029 95.707 18.2197 94.4941 18.2197ZM110.033 12.8672V12.4541C110.033 12.0967 109.919 11.7861 109.69 11.5225C109.468 11.2588 109.181 11.042 108.829 10.8721C108.483 10.7021 108.1 10.5762 107.678 10.4941C107.262 10.4121 106.86 10.3711 106.474 10.3711C105.817 10.3711 105.229 10.4502 104.707 10.6084C104.186 10.7666 103.743 10.9951 103.38 11.2939C103.022 11.5869 102.747 11.9473 102.554 12.375C102.366 12.7969 102.272 13.2744 102.272 13.8076C102.272 14.3467 102.366 14.8301 102.554 15.2578C102.741 15.6797 103.011 16.04 103.362 16.3389C103.72 16.6377 104.153 16.8662 104.663 17.0244C105.179 17.1826 105.762 17.2617 106.412 17.2617C106.963 17.2617 107.443 17.2119 107.854 17.1123C108.27 17.0068 108.621 16.875 108.908 16.7168C109.195 16.5527 109.427 16.3711 109.603 16.1719C109.778 15.9727 109.91 15.7734 109.998 15.5742H111.132C110.804 16.4414 110.235 17.1006 109.427 17.5518C108.618 17.9971 107.596 18.2197 106.359 18.2197C105.609 18.2197 104.912 18.126 104.268 17.9385C103.629 17.7451 103.075 17.4639 102.606 17.0947C102.144 16.7197 101.78 16.2598 101.517 15.7148C101.253 15.1641 101.121 14.5342 101.121 13.8252C101.121 13.1104 101.259 12.4775 101.534 11.9268C101.81 11.376 102.185 10.9131 102.659 10.5381C103.14 10.1631 103.699 9.87891 104.338 9.68555C104.982 9.49219 105.668 9.39551 106.395 9.39551C106.822 9.39551 107.221 9.4248 107.59 9.4834C107.959 9.54199 108.296 9.62402 108.601 9.72949C108.911 9.8291 109.184 9.94336 109.418 10.0723C109.658 10.2012 109.863 10.3359 110.033 10.4766V9.58008H110.991V12.8672H110.033ZM112.397 5.92383H115.474V11.2148C115.749 10.9512 116.057 10.708 116.396 10.4854C116.736 10.2568 117.103 10.0576 117.495 9.8877C117.888 9.71777 118.301 9.58594 118.734 9.49219C119.168 9.39258 119.613 9.34277 120.07 9.34277C120.615 9.34277 121.09 9.41309 121.494 9.55371C121.904 9.68848 122.244 9.88184 122.514 10.1338C122.783 10.3857 122.985 10.6934 123.12 11.0566C123.255 11.4141 123.322 11.8154 123.322 12.2607V17.0068H125.309V18H120.246V17.0068H122.224V12.5859C122.224 12.1406 122.165 11.7744 122.048 11.4873C121.937 11.1943 121.775 10.9629 121.564 10.793C121.354 10.623 121.096 10.5059 120.791 10.4414C120.492 10.3711 120.155 10.3359 119.78 10.3359C119.341 10.3359 118.91 10.3945 118.488 10.5117C118.066 10.6289 117.668 10.7754 117.293 10.9512C116.924 11.127 116.581 11.3232 116.265 11.54C115.954 11.751 115.69 11.9531 115.474 12.1465V17.0068H117.46V18H112.397V17.0068H114.375V6.9082H112.397V5.92383ZM126.003 9.63281H129.079V11.2148C129.354 10.9512 129.662 10.708 130.002 10.4854C130.342 10.2568 130.708 10.0576 131.101 9.8877C131.493 9.71777 131.906 9.58594 132.34 9.49219C132.773 9.39258 133.219 9.34277 133.676 9.34277C134.221 9.34277 134.695 9.41309 135.1 9.55371C135.51 9.68848 135.85 9.88184 136.119 10.1338C136.389 10.3857 136.591 10.6934 136.726 11.0566C136.86 11.4141 136.928 11.8154 136.928 12.2607V17.0068H138.914V18H133.852V17.0068H135.829V12.5859C135.829 12.1406 135.771 11.7744 135.653 11.4873C135.542 11.1943 135.381 10.9629 135.17 10.793C134.959 10.623 134.701 10.5059 134.396 10.4414C134.098 10.3711 133.761 10.3359 133.386 10.3359C132.946 10.3359 132.516 10.3945 132.094 10.5117C131.672 10.6289 131.273 10.7754 130.898 10.9512C130.529 11.127 130.187 11.3232 129.87 11.54C129.56 11.751 129.296 11.9531 129.079 12.1465V17.0068H131.065V18H126.003V17.0068H127.98V10.6172H126.003V9.63281ZM139.608 9.63281H142.685V17.0068H144.671V18H139.608V17.0068H141.586V10.6172H139.608V9.63281ZM141.032 7.28613C141.032 7.15137 141.056 7.02539 141.103 6.9082C141.155 6.78516 141.226 6.67969 141.313 6.5918C141.401 6.50391 141.504 6.43359 141.621 6.38086C141.738 6.32812 141.864 6.30176 141.999 6.30176C142.134 6.30176 142.26 6.32812 142.377 6.38086C142.5 6.43359 142.605 6.50391 142.693 6.5918C142.787 6.67969 142.86 6.78516 142.913 6.9082C142.966 7.02539 142.992 7.15137 142.992 7.28613C142.992 7.4209 142.966 7.5498 142.913 7.67285C142.86 7.79004 142.787 7.89258 142.693 7.98047C142.605 8.06836 142.5 8.13867 142.377 8.19141C142.26 8.23828 142.134 8.26172 141.999 8.26172C141.864 8.26172 141.738 8.23828 141.621 8.19141C141.504 8.13867 141.401 8.06836 141.313 7.98047C141.226 7.89258 141.155 7.79004 141.103 7.67285C141.056 7.5498 141.032 7.4209 141.032 7.28613ZM157.881 10.6172H155.903V20.4697H157.881V21.4541H152.915V20.4697H154.805V16.7783C154.529 16.9951 154.242 17.1943 153.943 17.376C153.645 17.5518 153.322 17.7041 152.977 17.833C152.637 17.9619 152.271 18.0615 151.878 18.1318C151.491 18.2021 151.069 18.2373 150.612 18.2373C150.003 18.2373 149.408 18.1494 148.828 17.9736C148.254 17.792 147.744 17.5166 147.299 17.1475C146.854 16.7783 146.496 16.3125 146.227 15.75C145.957 15.1875 145.822 14.5225 145.822 13.7549C145.822 13.0166 145.954 12.375 146.218 11.8301C146.487 11.2852 146.854 10.834 147.316 10.4766C147.779 10.1133 148.321 9.84375 148.942 9.66797C149.563 9.48633 150.229 9.39551 150.938 9.39551C151.295 9.39551 151.646 9.4248 151.992 9.4834C152.338 9.53613 152.675 9.6123 153.003 9.71191C153.331 9.81152 153.647 9.92871 153.952 10.0635C154.257 10.1924 154.541 10.3301 154.805 10.4766V9.63281H157.881V10.6172ZM150.867 17.2969C151.301 17.2969 151.708 17.2471 152.089 17.1475C152.476 17.042 152.833 16.9072 153.161 16.7432C153.495 16.5791 153.797 16.3975 154.066 16.1982C154.342 15.999 154.588 15.8027 154.805 15.6094V11.5928C154.582 11.4287 154.333 11.2734 154.058 11.127C153.782 10.9746 153.48 10.8398 153.152 10.7227C152.83 10.6055 152.484 10.5117 152.115 10.4414C151.752 10.3711 151.365 10.3359 150.955 10.3359C150.352 10.3359 149.801 10.4121 149.303 10.5645C148.805 10.7168 148.377 10.9395 148.02 11.2324C147.668 11.5195 147.393 11.877 147.193 12.3047C147 12.7266 146.903 13.21 146.903 13.7549C146.903 14.8916 147.24 15.7676 147.914 16.3828C148.588 16.9922 149.572 17.2969 150.867 17.2969ZM171.319 18H168.243V16.418C167.968 16.6816 167.66 16.9277 167.32 17.1562C166.98 17.3789 166.614 17.5752 166.222 17.7451C165.835 17.915 165.425 18.0469 164.991 18.1406C164.558 18.2402 164.112 18.29 163.655 18.29C163.104 18.29 162.624 18.2197 162.214 18.0791C161.81 17.9443 161.473 17.751 161.203 17.499C160.934 17.2471 160.731 16.9424 160.597 16.585C160.462 16.2217 160.395 15.8174 160.395 15.3721V10.6172H158.417V9.63281H161.493V15.0469C161.493 15.4922 161.549 15.8613 161.66 16.1543C161.777 16.4414 161.941 16.6699 162.152 16.8398C162.363 17.0098 162.618 17.1299 162.917 17.2002C163.222 17.2646 163.564 17.2969 163.945 17.2969C164.379 17.2969 164.807 17.2383 165.229 17.1211C165.65 17.0039 166.049 16.8574 166.424 16.6816C166.799 16.5 167.142 16.3037 167.452 16.0928C167.763 15.876 168.026 15.6709 168.243 15.4775V10.6172H166.266V9.63281H169.342V17.0068H171.319V18ZM181.4 13.3945C181.371 12.9961 181.28 12.6182 181.128 12.2607C180.976 11.9033 180.747 11.5898 180.442 11.3203C180.138 11.0449 179.754 10.8281 179.291 10.6699C178.828 10.5059 178.271 10.4238 177.621 10.4238C177.012 10.4238 176.473 10.5059 176.004 10.6699C175.535 10.8281 175.137 11.0449 174.809 11.3203C174.48 11.5898 174.223 11.9033 174.035 12.2607C173.848 12.6182 173.728 12.9961 173.675 13.3945H181.4ZM177.604 18.2197C176.836 18.2197 176.139 18.1201 175.512 17.9209C174.891 17.7158 174.36 17.4258 173.921 17.0508C173.481 16.6699 173.142 16.21 172.901 15.6709C172.661 15.1318 172.541 14.5283 172.541 13.8604C172.541 13.21 172.667 12.6152 172.919 12.0762C173.171 11.5312 173.522 11.0654 173.974 10.6787C174.425 10.2861 174.961 9.98438 175.582 9.77344C176.203 9.55664 176.883 9.44824 177.621 9.44824C178.389 9.44824 179.077 9.55664 179.687 9.77344C180.296 9.99023 180.812 10.3037 181.233 10.7139C181.655 11.1182 181.978 11.6104 182.2 12.1904C182.423 12.7705 182.534 13.4238 182.534 14.1504V14.3438H173.675C173.716 14.7891 173.83 15.1904 174.018 15.5479C174.211 15.9053 174.475 16.21 174.809 16.4619C175.143 16.7139 175.541 16.9072 176.004 17.042C176.473 17.1768 177.006 17.2441 177.604 17.2441C178.178 17.2441 178.676 17.1973 179.098 17.1035C179.525 17.0098 179.886 16.8838 180.179 16.7256C180.478 16.5674 180.718 16.3887 180.899 16.1895C181.087 15.9902 181.23 15.7852 181.33 15.5742H182.429C182.083 16.4648 181.494 17.1299 180.662 17.5693C179.836 18.0029 178.816 18.2197 177.604 18.2197ZM184.345 18V14.9238H185.329V15.46C185.329 15.7822 185.438 16.0605 185.654 16.2949C185.877 16.5234 186.161 16.7139 186.507 16.8662C186.853 17.0127 187.233 17.1211 187.649 17.1914C188.071 17.2617 188.481 17.2969 188.88 17.2969C189.349 17.2969 189.779 17.2734 190.172 17.2266C190.564 17.1738 190.904 17.0889 191.191 16.9717C191.479 16.8545 191.701 16.7021 191.859 16.5146C192.018 16.3213 192.097 16.084 192.097 15.8027C192.097 15.5391 192.023 15.3164 191.877 15.1348C191.736 14.9473 191.543 14.792 191.297 14.6689C191.057 14.5459 190.772 14.4434 190.444 14.3613C190.122 14.2793 189.776 14.209 189.407 14.1504C189.044 14.0859 188.669 14.0273 188.282 13.9746C187.896 13.916 187.518 13.8486 187.148 13.7725C186.785 13.6904 186.439 13.5938 186.111 13.4824C185.789 13.3711 185.505 13.2305 185.259 13.0605C185.019 12.8848 184.825 12.6738 184.679 12.4277C184.538 12.1816 184.468 11.8857 184.468 11.54C184.468 11.0947 184.579 10.7314 184.802 10.4502C185.024 10.1631 185.314 9.9375 185.672 9.77344C186.029 9.60938 186.434 9.49805 186.885 9.43945C187.342 9.375 187.802 9.34277 188.265 9.34277C188.938 9.34277 189.557 9.41895 190.119 9.57129C190.682 9.72363 191.156 9.92285 191.543 10.1689V9.63281H192.527V12.4541H191.543V11.8037C191.543 11.6162 191.493 11.4492 191.394 11.3027C191.294 11.1504 191.159 11.0186 190.989 10.9072C190.819 10.79 190.626 10.6934 190.409 10.6172C190.192 10.5352 189.964 10.4707 189.724 10.4238C189.489 10.3711 189.252 10.333 189.012 10.3096C188.777 10.2861 188.558 10.2744 188.353 10.2744C187.427 10.2744 186.727 10.3652 186.252 10.5469C185.783 10.7285 185.549 11.0596 185.549 11.54C185.549 11.7686 185.619 11.9619 185.76 12.1201C185.906 12.2725 186.1 12.4043 186.34 12.5156C186.586 12.6211 186.87 12.7119 187.192 12.7881C187.521 12.8584 187.866 12.9258 188.229 12.9902C188.599 13.0488 188.977 13.1104 189.363 13.1748C189.75 13.2334 190.125 13.3096 190.488 13.4033C190.857 13.4912 191.203 13.5996 191.525 13.7285C191.854 13.8574 192.138 14.0186 192.378 14.2119C192.624 14.3994 192.817 14.6279 192.958 14.8975C193.104 15.167 193.178 15.4863 193.178 15.8555C193.178 16.1777 193.116 16.459 192.993 16.6992C192.87 16.9395 192.706 17.1504 192.501 17.332C192.296 17.5078 192.059 17.6543 191.789 17.7715C191.525 17.8887 191.247 17.9795 190.954 18.0439C190.661 18.1143 190.365 18.1641 190.066 18.1934C189.768 18.2227 189.486 18.2373 189.223 18.2373C188.344 18.2373 187.579 18.1436 186.929 17.9561C186.284 17.7686 185.751 17.5254 185.329 17.2266V18H184.345ZM75.7207 26.9238H81.8555V27.9082H79.3418V38.0068H81.8555V39H75.7207V38.0068H78.2432V27.9082H75.7207V26.9238ZM82.9893 30.6328H86.0654V32.2148C86.3408 31.9512 86.6484 31.708 86.9883 31.4854C87.3281 31.2568 87.6943 31.0576 88.0869 30.8877C88.4795 30.7178 88.8926 30.5859 89.3262 30.4922C89.7598 30.3926 90.2051 30.3428 90.6621 30.3428C91.207 30.3428 91.6816 30.4131 92.0859 30.5537C92.4961 30.6885 92.8359 30.8818 93.1055 31.1338C93.375 31.3857 93.5771 31.6934 93.7119 32.0566C93.8467 32.4141 93.9141 32.8154 93.9141 33.2607V38.0068H95.9004V39H90.8379V38.0068H92.8154V33.5859C92.8154 33.1406 92.7568 32.7744 92.6396 32.4873C92.5283 32.1943 92.3672 31.9629 92.1562 31.793C91.9453 31.623 91.6875 31.5059 91.3828 31.4414C91.084 31.3711 90.7471 31.3359 90.3721 31.3359C89.9326 31.3359 89.502 31.3945 89.0801 31.5117C88.6582 31.6289 88.2598 31.7754 87.8848 31.9512C87.5156 32.127 87.1729 32.3232 86.8564 32.54C86.5459 32.751 86.2822 32.9531 86.0654 33.1465V38.0068H88.0518V39H82.9893V38.0068H84.9668V31.6172H82.9893V30.6328ZM96.1816 30.6328H98.4492V27.7324H99.5479V30.6328H105.437V31.6172H99.5479V36.4951C99.5479 36.8408 99.6094 37.1279 99.7324 37.3564C99.8613 37.585 100.04 37.7666 100.269 37.9014C100.497 38.0361 100.77 38.1299 101.086 38.1826C101.408 38.2354 101.76 38.2617 102.141 38.2617C102.521 38.2617 102.87 38.2383 103.187 38.1914C103.503 38.1445 103.79 38.0859 104.048 38.0156C104.306 37.9395 104.54 37.8545 104.751 37.7607C104.968 37.6611 105.164 37.5586 105.34 37.4531L105.885 38.332C105.668 38.4551 105.422 38.5723 105.146 38.6836C104.877 38.7891 104.584 38.8828 104.268 38.9648C103.951 39.041 103.614 39.1025 103.257 39.1494C102.899 39.1963 102.533 39.2197 102.158 39.2197C101.596 39.2197 101.086 39.1729 100.629 39.0791C100.172 38.9854 99.7822 38.833 99.46 38.6221C99.1377 38.4111 98.8887 38.1357 98.7129 37.7959C98.5371 37.4502 98.4492 37.0283 98.4492 36.5303V31.6172H96.1816V30.6328ZM116.115 34.3945C116.086 33.9961 115.995 33.6182 115.843 33.2607C115.69 32.9033 115.462 32.5898 115.157 32.3203C114.853 32.0449 114.469 31.8281 114.006 31.6699C113.543 31.5059 112.986 31.4238 112.336 31.4238C111.727 31.4238 111.188 31.5059 110.719 31.6699C110.25 31.8281 109.852 32.0449 109.523 32.3203C109.195 32.5898 108.938 32.9033 108.75 33.2607C108.562 33.6182 108.442 33.9961 108.39 34.3945H116.115ZM112.318 39.2197C111.551 39.2197 110.854 39.1201 110.227 38.9209C109.605 38.7158 109.075 38.4258 108.636 38.0508C108.196 37.6699 107.856 37.21 107.616 36.6709C107.376 36.1318 107.256 35.5283 107.256 34.8604C107.256 34.21 107.382 33.6152 107.634 33.0762C107.886 32.5312 108.237 32.0654 108.688 31.6787C109.14 31.2861 109.676 30.9844 110.297 30.7734C110.918 30.5566 111.598 30.4482 112.336 30.4482C113.104 30.4482 113.792 30.5566 114.401 30.7734C115.011 30.9902 115.526 31.3037 115.948 31.7139C116.37 32.1182 116.692 32.6104 116.915 33.1904C117.138 33.7705 117.249 34.4238 117.249 35.1504V35.3438H108.39C108.431 35.7891 108.545 36.1904 108.732 36.5479C108.926 36.9053 109.189 37.21 109.523 37.4619C109.857 37.7139 110.256 37.9072 110.719 38.042C111.188 38.1768 111.721 38.2441 112.318 38.2441C112.893 38.2441 113.391 38.1973 113.812 38.1035C114.24 38.0098 114.601 37.8838 114.894 37.7256C115.192 37.5674 115.433 37.3887 115.614 37.1895C115.802 36.9902 115.945 36.7852 116.045 36.5742H117.144C116.798 37.4648 116.209 38.1299 115.377 38.5693C114.551 39.0029 113.531 39.2197 112.318 39.2197ZM115.447 27.7148L111.58 29.3496L111.22 28.6113L114.981 26.7393L115.447 27.7148ZM123.718 42.6387C122.88 42.6387 122.106 42.5566 121.397 42.3926C120.694 42.2285 120.076 42.0146 119.543 41.751L120.044 40.7842C120.149 40.8486 120.296 40.9277 120.483 41.0215C120.671 41.1211 120.911 41.2178 121.204 41.3115C121.497 41.4111 121.849 41.4932 122.259 41.5576C122.675 41.6279 123.161 41.6631 123.718 41.6631C124.315 41.6631 124.834 41.6191 125.273 41.5312C125.713 41.4434 126.088 41.3203 126.398 41.1621C126.715 41.0098 126.97 40.8281 127.163 40.6172C127.362 40.4121 127.518 40.1895 127.629 39.9492C127.746 39.709 127.825 39.457 127.866 39.1934C127.907 38.9297 127.928 38.666 127.928 38.4023V37.7783C127.652 37.9951 127.365 38.1943 127.066 38.376C126.768 38.5518 126.445 38.7041 126.1 38.833C125.76 38.9619 125.394 39.0615 125.001 39.1318C124.614 39.2021 124.192 39.2373 123.735 39.2373C123.126 39.2373 122.531 39.1494 121.951 38.9736C121.377 38.792 120.867 38.5166 120.422 38.1475C119.977 37.7783 119.619 37.3125 119.35 36.75C119.08 36.1875 118.945 35.5225 118.945 34.7549C118.945 34.0166 119.077 33.375 119.341 32.8301C119.61 32.2852 119.977 31.834 120.439 31.4766C120.902 31.1133 121.444 30.8438 122.065 30.668C122.687 30.4863 123.352 30.3955 124.061 30.3955C124.418 30.3955 124.77 30.4248 125.115 30.4834C125.461 30.5361 125.798 30.6123 126.126 30.7119C126.454 30.8115 126.771 30.9287 127.075 31.0635C127.38 31.1924 127.664 31.3301 127.928 31.4766V30.6328H131.004V31.6172H129.026V38.3672C129.026 39 128.924 39.5771 128.719 40.0986C128.514 40.6201 128.194 41.0684 127.761 41.4434C127.333 41.8242 126.782 42.1172 126.108 42.3223C125.44 42.5332 124.644 42.6387 123.718 42.6387ZM123.99 38.2969C124.424 38.2969 124.831 38.2471 125.212 38.1475C125.599 38.042 125.956 37.9072 126.284 37.7432C126.618 37.5791 126.92 37.3975 127.189 37.1982C127.465 36.999 127.711 36.8027 127.928 36.6094V32.5928C127.705 32.4287 127.456 32.2734 127.181 32.127C126.905 31.9746 126.604 31.8398 126.275 31.7227C125.953 31.6055 125.607 31.5117 125.238 31.4414C124.875 31.3711 124.488 31.3359 124.078 31.3359C123.475 31.3359 122.924 31.4121 122.426 31.5645C121.928 31.7168 121.5 31.9395 121.143 32.2324C120.791 32.5195 120.516 32.877 120.316 33.3047C120.123 33.7266 120.026 34.21 120.026 34.7549C120.026 35.8916 120.363 36.7676 121.037 37.3828C121.711 37.9922 122.695 38.2969 123.99 38.2969ZM131.663 30.6328H134.739V32.3906C134.979 32.1094 135.237 31.8486 135.513 31.6084C135.788 31.3623 136.084 31.1514 136.4 30.9756C136.723 30.7939 137.065 30.6533 137.429 30.5537C137.798 30.4482 138.193 30.3955 138.615 30.3955C138.826 30.3955 139.022 30.4131 139.204 30.4482C139.386 30.4775 139.547 30.5127 139.688 30.5537C139.828 30.5947 139.945 30.6357 140.039 30.6768C140.133 30.7178 140.197 30.7441 140.232 30.7559L139.837 31.7666C139.69 31.6904 139.5 31.6113 139.266 31.5293C139.037 31.4473 138.747 31.4062 138.396 31.4062C137.95 31.4062 137.54 31.4766 137.165 31.6172C136.796 31.752 136.459 31.9219 136.154 32.127C135.855 32.332 135.589 32.5605 135.354 32.8125C135.12 33.0586 134.915 33.29 134.739 33.5068V38.0068H136.901V39H131.663V38.0068H133.641V31.6172H131.663V30.6328ZM149.127 38.0244C148.857 38.1592 148.559 38.2998 148.23 38.4463C147.902 38.5869 147.548 38.7158 147.167 38.833C146.786 38.9502 146.382 39.0469 145.954 39.123C145.526 39.1992 145.078 39.2373 144.609 39.2373C144.082 39.2373 143.604 39.1846 143.177 39.0791C142.749 38.9736 142.386 38.8184 142.087 38.6133C141.788 38.4023 141.557 38.1445 141.393 37.8398C141.229 37.5293 141.146 37.1719 141.146 36.7676C141.146 36.1406 141.349 35.6279 141.753 35.2295C142.157 34.8311 142.714 34.5146 143.423 34.2803C144.138 34.04 144.981 33.8643 145.954 33.7529C146.927 33.6416 147.984 33.5596 149.127 33.5068V33.0938C149.127 32.7832 149.042 32.5166 148.872 32.2939C148.702 32.0713 148.474 31.8896 148.187 31.749C147.899 31.6084 147.565 31.5059 147.185 31.4414C146.81 31.3711 146.411 31.3359 145.989 31.3359C145.497 31.3359 145.066 31.3682 144.697 31.4326C144.334 31.4912 144.026 31.582 143.774 31.7051C143.522 31.8223 143.32 31.9688 143.168 32.1445C143.021 32.3145 142.913 32.5107 142.843 32.7334L141.727 32.4697C141.914 31.8135 142.359 31.3037 143.062 30.9404C143.771 30.5771 144.735 30.3955 145.954 30.3955C146.569 30.3955 147.138 30.4482 147.659 30.5537C148.181 30.6592 148.629 30.8262 149.004 31.0547C149.385 31.2832 149.681 31.582 149.892 31.9512C150.108 32.3145 150.217 32.7568 150.217 33.2783V38.0068H152.309V39H149.127V38.0244ZM149.127 34.4297C147.844 34.4766 146.763 34.5615 145.884 34.6846C145.005 34.8018 144.293 34.957 143.748 35.1504C143.209 35.3379 142.819 35.5635 142.579 35.8271C142.345 36.085 142.228 36.3809 142.228 36.7148C142.228 37.2305 142.45 37.623 142.896 37.8926C143.347 38.1621 144.006 38.2969 144.873 38.2969C145.242 38.2969 145.635 38.2559 146.051 38.1738C146.473 38.0918 146.88 37.9893 147.272 37.8662C147.665 37.7373 148.025 37.5938 148.354 37.4355C148.682 37.2773 148.939 37.1221 149.127 36.9697V34.4297ZM152.502 30.6328H154.77V27.7324H155.868V30.6328H161.757V31.6172H155.868V36.4951C155.868 36.8408 155.93 37.1279 156.053 37.3564C156.182 37.585 156.36 37.7666 156.589 37.9014C156.817 38.0361 157.09 38.1299 157.406 38.1826C157.729 38.2354 158.08 38.2617 158.461 38.2617C158.842 38.2617 159.19 38.2383 159.507 38.1914C159.823 38.1445 160.11 38.0859 160.368 38.0156C160.626 37.9395 160.86 37.8545 161.071 37.7607C161.288 37.6611 161.484 37.5586 161.66 37.4531L162.205 38.332C161.988 38.4551 161.742 38.5723 161.467 38.6836C161.197 38.7891 160.904 38.8828 160.588 38.9648C160.271 39.041 159.935 39.1025 159.577 39.1494C159.22 39.1963 158.854 39.2197 158.479 39.2197C157.916 39.2197 157.406 39.1729 156.949 39.0791C156.492 38.9854 156.103 38.833 155.78 38.6221C155.458 38.4111 155.209 38.1357 155.033 37.7959C154.857 37.4502 154.77 37.0283 154.77 36.5303V31.6172H152.502V30.6328ZM163.128 30.6328H166.204V38.0068H168.19V39H163.128V38.0068H165.105V31.6172H163.128V30.6328ZM164.552 28.2861C164.552 28.1514 164.575 28.0254 164.622 27.9082C164.675 27.7852 164.745 27.6797 164.833 27.5918C164.921 27.5039 165.023 27.4336 165.141 27.3809C165.258 27.3281 165.384 27.3018 165.519 27.3018C165.653 27.3018 165.779 27.3281 165.896 27.3809C166.02 27.4336 166.125 27.5039 166.213 27.5918C166.307 27.6797 166.38 27.7852 166.433 27.9082C166.485 28.0254 166.512 28.1514 166.512 28.2861C166.512 28.4209 166.485 28.5498 166.433 28.6729C166.38 28.79 166.307 28.8926 166.213 28.9805C166.125 29.0684 166.02 29.1387 165.896 29.1914C165.779 29.2383 165.653 29.2617 165.519 29.2617C165.384 29.2617 165.258 29.2383 165.141 29.1914C165.023 29.1387 164.921 29.0684 164.833 28.9805C164.745 28.8926 164.675 28.79 164.622 28.6729C164.575 28.5498 164.552 28.4209 164.552 28.2861ZM180.091 34.8252C180.091 35.5928 179.953 36.2549 179.678 36.8115C179.402 37.3623 179.024 37.8193 178.544 38.1826C178.063 38.54 177.495 38.8066 176.839 38.9824C176.188 39.1523 175.485 39.2373 174.729 39.2373C173.968 39.2373 173.259 39.1523 172.603 38.9824C171.946 38.8066 171.375 38.54 170.889 38.1826C170.408 37.8193 170.03 37.3623 169.755 36.8115C169.479 36.2549 169.342 35.5928 169.342 34.8252C169.342 34.0635 169.479 33.4043 169.755 32.8477C170.036 32.2852 170.42 31.8252 170.906 31.4678C171.393 31.1045 171.964 30.835 172.62 30.6592C173.276 30.4834 173.979 30.3955 174.729 30.3955C175.485 30.3955 176.188 30.4834 176.839 30.6592C177.495 30.8291 178.063 31.0957 178.544 31.459C179.024 31.8164 179.402 32.2764 179.678 32.8389C179.953 33.3955 180.091 34.0576 180.091 34.8252ZM179.01 34.8252C179.01 33.6943 178.649 32.8301 177.929 32.2324C177.214 31.6348 176.147 31.3359 174.729 31.3359C173.306 31.3359 172.23 31.6348 171.504 32.2324C170.783 32.8301 170.423 33.6943 170.423 34.8252C170.423 35.9561 170.783 36.8174 171.504 37.4092C172.23 38.001 173.306 38.2969 174.729 38.2969C176.147 38.2969 177.214 38.001 177.929 37.4092C178.649 36.8115 179.01 35.9502 179.01 34.8252ZM181.374 30.6328H184.45V32.2148C184.726 31.9512 185.033 31.708 185.373 31.4854C185.713 31.2568 186.079 31.0576 186.472 30.8877C186.864 30.7178 187.277 30.5859 187.711 30.4922C188.145 30.3926 188.59 30.3428 189.047 30.3428C189.592 30.3428 190.066 30.4131 190.471 30.5537C190.881 30.6885 191.221 30.8818 191.49 31.1338C191.76 31.3857 191.962 31.6934 192.097 32.0566C192.231 32.4141 192.299 32.8154 192.299 33.2607V38.0068H194.285V39H189.223V38.0068H191.2V33.5859C191.2 33.1406 191.142 32.7744 191.024 32.4873C190.913 32.1943 190.752 31.9629 190.541 31.793C190.33 31.623 190.072 31.5059 189.768 31.4414C189.469 31.3711 189.132 31.3359 188.757 31.3359C188.317 31.3359 187.887 31.3945 187.465 31.5117C187.043 31.6289 186.645 31.7754 186.27 31.9512C185.9 32.127 185.558 32.3232 185.241 32.54C184.931 32.751 184.667 32.9531 184.45 33.1465V38.0068H186.437V39H181.374V38.0068H183.352V31.6172H181.374V30.6328ZM75.7207 47.9238H79.4121L86.5049 58.8662L93.4834 47.9238H97.1924V48.9082H94.6699V59.0068H97.1924V60H91.0576V59.0068H93.5801V49.7256L86.9531 60H85.9775L79.3418 49.6816V59.0068H81.8555V60H75.7207V59.0068H78.2432V48.9082H75.7207V47.9238ZM111.114 60H108.038V58.418C107.763 58.6816 107.455 58.9277 107.115 59.1562C106.775 59.3789 106.409 59.5752 106.017 59.7451C105.63 59.915 105.22 60.0469 104.786 60.1406C104.353 60.2402 103.907 60.29 103.45 60.29C102.899 60.29 102.419 60.2197 102.009 60.0791C101.604 59.9443 101.268 59.751 100.998 59.499C100.729 59.2471 100.526 58.9424 100.392 58.585C100.257 58.2217 100.189 57.8174 100.189 57.3721V52.6172H98.2119V51.6328H101.288V57.0469C101.288 57.4922 101.344 57.8613 101.455 58.1543C101.572 58.4414 101.736 58.6699 101.947 58.8398C102.158 59.0098 102.413 59.1299 102.712 59.2002C103.017 59.2646 103.359 59.2969 103.74 59.2969C104.174 59.2969 104.602 59.2383 105.023 59.1211C105.445 59.0039 105.844 58.8574 106.219 58.6816C106.594 58.5 106.937 58.3037 107.247 58.0928C107.558 57.876 107.821 57.6709 108.038 57.4775V52.6172H106.061V51.6328H109.137V59.0068H111.114V60ZM111.299 47.9238H114.375V57.2666C114.375 57.6182 114.404 57.9053 114.463 58.1279C114.521 58.3447 114.612 58.5146 114.735 58.6377C114.864 58.7549 115.028 58.834 115.228 58.875C115.433 58.916 115.676 58.9365 115.957 58.9365H116.818V60H115.975C115.506 60 115.102 59.959 114.762 59.877C114.422 59.7891 114.141 59.6396 113.918 59.4287C113.701 59.2178 113.54 58.9365 113.435 58.585C113.329 58.2275 113.276 57.7764 113.276 57.2314V48.9082H111.299V47.9238ZM117.082 51.6328H119.35V48.7324H120.448V51.6328H126.337V52.6172H120.448V57.4951C120.448 57.8408 120.51 58.1279 120.633 58.3564C120.762 58.585 120.94 58.7666 121.169 58.9014C121.397 59.0361 121.67 59.1299 121.986 59.1826C122.309 59.2354 122.66 59.2617 123.041 59.2617C123.422 59.2617 123.771 59.2383 124.087 59.1914C124.403 59.1445 124.69 59.0859 124.948 59.0156C125.206 58.9395 125.44 58.8545 125.651 58.7607C125.868 58.6611 126.064 58.5586 126.24 58.4531L126.785 59.332C126.568 59.4551 126.322 59.5723 126.047 59.6836C125.777 59.7891 125.484 59.8828 125.168 59.9648C124.852 60.041 124.515 60.1025 124.157 60.1494C123.8 60.1963 123.434 60.2197 123.059 60.2197C122.496 60.2197 121.986 60.1729 121.529 60.0791C121.072 59.9854 120.683 59.833 120.36 59.6221C120.038 59.4111 119.789 59.1357 119.613 58.7959C119.438 58.4502 119.35 58.0283 119.35 57.5303V52.6172H117.082V51.6328ZM127.708 51.6328H130.784V59.0068H132.771V60H127.708V59.0068H129.686V52.6172H127.708V51.6328ZM129.132 49.2861C129.132 49.1514 129.155 49.0254 129.202 48.9082C129.255 48.7852 129.325 48.6797 129.413 48.5918C129.501 48.5039 129.604 48.4336 129.721 48.3809C129.838 48.3281 129.964 48.3018 130.099 48.3018C130.233 48.3018 130.359 48.3281 130.477 48.3809C130.6 48.4336 130.705 48.5039 130.793 48.5918C130.887 48.6797 130.96 48.7852 131.013 48.9082C131.065 49.0254 131.092 49.1514 131.092 49.2861C131.092 49.4209 131.065 49.5498 131.013 49.6729C130.96 49.79 130.887 49.8926 130.793 49.9805C130.705 50.0684 130.6 50.1387 130.477 50.1914C130.359 50.2383 130.233 50.2617 130.099 50.2617C129.964 50.2617 129.838 50.2383 129.721 50.1914C129.604 50.1387 129.501 50.0684 129.413 49.9805C129.325 49.8926 129.255 49.79 129.202 49.6729C129.155 49.5498 129.132 49.4209 129.132 49.2861ZM148.09 59.0068H150.067V54.5859C150.067 54.1406 150.012 53.7744 149.9 53.4873C149.789 53.1943 149.631 52.9629 149.426 52.793C149.221 52.623 148.972 52.5059 148.679 52.4414C148.392 52.3711 148.069 52.3359 147.712 52.3359C147.331 52.3359 146.959 52.3945 146.596 52.5117C146.232 52.6289 145.884 52.7783 145.55 52.96C145.216 53.1416 144.905 53.3408 144.618 53.5576C144.331 53.7686 144.079 53.9707 143.862 54.1641V54.2607V59.0068H145.84V60H140.786V59.0068H142.764V54.5859C142.764 54.1406 142.708 53.7744 142.597 53.4873C142.485 53.1943 142.324 52.9629 142.113 52.793C141.908 52.623 141.659 52.5059 141.366 52.4414C141.079 52.3711 140.76 52.3359 140.408 52.3359C140.016 52.3359 139.635 52.3945 139.266 52.5117C138.896 52.6289 138.545 52.7754 138.211 52.9512C137.883 53.127 137.578 53.3232 137.297 53.54C137.016 53.751 136.767 53.9531 136.55 54.1465V59.0068H138.536V60H133.474V59.0068H135.451V52.6172H133.474V51.6328H136.55V53.127C136.825 52.8867 137.118 52.6582 137.429 52.4414C137.739 52.2246 138.067 52.0371 138.413 51.8789C138.759 51.7148 139.119 51.5859 139.494 51.4922C139.875 51.3926 140.273 51.3428 140.689 51.3428C141.527 51.3428 142.195 51.5098 142.693 51.8438C143.191 52.1719 143.531 52.6289 143.713 53.2148C143.988 52.9805 144.29 52.752 144.618 52.5293C144.946 52.3008 145.292 52.0986 145.655 51.9229C146.024 51.7471 146.405 51.6064 146.798 51.501C147.196 51.3955 147.598 51.3428 148.002 51.3428C148.529 51.3428 148.989 51.4131 149.382 51.5537C149.78 51.6885 150.111 51.8818 150.375 52.1338C150.639 52.3857 150.835 52.6934 150.964 53.0566C151.099 53.4141 151.166 53.8154 151.166 54.2607V59.0068H153.152V60H148.09V59.0068ZM163.154 55.3945C163.125 54.9961 163.034 54.6182 162.882 54.2607C162.729 53.9033 162.501 53.5898 162.196 53.3203C161.892 53.0449 161.508 52.8281 161.045 52.6699C160.582 52.5059 160.025 52.4238 159.375 52.4238C158.766 52.4238 158.227 52.5059 157.758 52.6699C157.289 52.8281 156.891 53.0449 156.562 53.3203C156.234 53.5898 155.977 53.9033 155.789 54.2607C155.602 54.6182 155.481 54.9961 155.429 55.3945H163.154ZM159.357 60.2197C158.59 60.2197 157.893 60.1201 157.266 59.9209C156.645 59.7158 156.114 59.4258 155.675 59.0508C155.235 58.6699 154.896 58.21 154.655 57.6709C154.415 57.1318 154.295 56.5283 154.295 55.8604C154.295 55.21 154.421 54.6152 154.673 54.0762C154.925 53.5312 155.276 53.0654 155.728 52.6787C156.179 52.2861 156.715 51.9844 157.336 51.7734C157.957 51.5566 158.637 51.4482 159.375 51.4482C160.143 51.4482 160.831 51.5566 161.44 51.7734C162.05 51.9902 162.565 52.3037 162.987 52.7139C163.409 53.1182 163.731 53.6104 163.954 54.1904C164.177 54.7705 164.288 55.4238 164.288 56.1504V56.3438H155.429C155.47 56.7891 155.584 57.1904 155.771 57.5479C155.965 57.9053 156.229 58.21 156.562 58.4619C156.896 58.7139 157.295 58.9072 157.758 59.042C158.227 59.1768 158.76 59.2441 159.357 59.2441C159.932 59.2441 160.43 59.1973 160.852 59.1035C161.279 59.0098 161.64 58.8838 161.933 58.7256C162.231 58.5674 162.472 58.3887 162.653 58.1895C162.841 57.9902 162.984 57.7852 163.084 57.5742H164.183C163.837 58.4648 163.248 59.1299 162.416 59.5693C161.59 60.0029 160.57 60.2197 159.357 60.2197ZM162.486 48.7148L158.619 50.3496L158.259 49.6113L162.021 47.7393L162.486 48.7148ZM178.043 60H174.967V58.7783C174.691 58.9951 174.404 59.1943 174.105 59.376C173.807 59.5518 173.484 59.7041 173.139 59.833C172.799 59.9619 172.433 60.0615 172.04 60.1318C171.653 60.2021 171.231 60.2373 170.774 60.2373C170.165 60.2373 169.57 60.1494 168.99 59.9736C168.416 59.792 167.906 59.5166 167.461 59.1475C167.016 58.7783 166.658 58.3125 166.389 57.75C166.119 57.1875 165.984 56.5225 165.984 55.7549C165.984 55.0166 166.116 54.375 166.38 53.8301C166.649 53.2852 167.016 52.834 167.479 52.4766C167.941 52.1133 168.483 51.8438 169.104 51.668C169.726 51.4863 170.391 51.3955 171.1 51.3955C171.457 51.3955 171.809 51.4248 172.154 51.4834C172.5 51.5361 172.837 51.6123 173.165 51.7119C173.493 51.8115 173.81 51.9287 174.114 52.0635C174.419 52.1924 174.703 52.3301 174.967 52.4766V48.9082H172.972V47.9238H176.065V59.0068H178.043V60ZM171.029 59.2969C171.463 59.2969 171.87 59.2471 172.251 59.1475C172.638 59.042 172.995 58.9072 173.323 58.7432C173.657 58.5791 173.959 58.3975 174.229 58.1982C174.504 57.999 174.75 57.8027 174.967 57.6094V53.5928C174.744 53.4287 174.495 53.2734 174.22 53.127C173.944 52.9746 173.643 52.8398 173.314 52.7227C172.992 52.6055 172.646 52.5117 172.277 52.4414C171.914 52.3711 171.527 52.3359 171.117 52.3359C170.514 52.3359 169.963 52.4121 169.465 52.5645C168.967 52.7168 168.539 52.9395 168.182 53.2324C167.83 53.5195 167.555 53.877 167.355 54.3047C167.162 54.7266 167.065 55.21 167.065 55.7549C167.065 56.8916 167.402 57.7676 168.076 58.3828C168.75 58.9922 169.734 59.2969 171.029 59.2969ZM178.702 51.6328H181.778V59.0068H183.765V60H178.702V59.0068H180.68V52.6172H178.702V51.6328ZM180.126 49.2861C180.126 49.1514 180.149 49.0254 180.196 48.9082C180.249 48.7852 180.319 48.6797 180.407 48.5918C180.495 48.5039 180.598 48.4336 180.715 48.3809C180.832 48.3281 180.958 48.3018 181.093 48.3018C181.228 48.3018 181.354 48.3281 181.471 48.3809C181.594 48.4336 181.699 48.5039 181.787 48.5918C181.881 48.6797 181.954 48.7852 182.007 48.9082C182.06 49.0254 182.086 49.1514 182.086 49.2861C182.086 49.4209 182.06 49.5498 182.007 49.6729C181.954 49.79 181.881 49.8926 181.787 49.9805C181.699 50.0684 181.594 50.1387 181.471 50.1914C181.354 50.2383 181.228 50.2617 181.093 50.2617C180.958 50.2617 180.832 50.2383 180.715 50.1914C180.598 50.1387 180.495 50.0684 180.407 49.9805C180.319 49.8926 180.249 49.79 180.196 49.6729C180.149 49.5498 180.126 49.4209 180.126 49.2861ZM192.896 59.0244C192.627 59.1592 192.328 59.2998 192 59.4463C191.672 59.5869 191.317 59.7158 190.937 59.833C190.556 59.9502 190.151 60.0469 189.724 60.123C189.296 60.1992 188.848 60.2373 188.379 60.2373C187.852 60.2373 187.374 60.1846 186.946 60.0791C186.519 59.9736 186.155 59.8184 185.856 59.6133C185.558 59.4023 185.326 59.1445 185.162 58.8398C184.998 58.5293 184.916 58.1719 184.916 57.7676C184.916 57.1406 185.118 56.6279 185.522 56.2295C185.927 55.8311 186.483 55.5146 187.192 55.2803C187.907 55.04 188.751 54.8643 189.724 54.7529C190.696 54.6416 191.754 54.5596 192.896 54.5068V54.0938C192.896 53.7832 192.812 53.5166 192.642 53.2939C192.472 53.0713 192.243 52.8896 191.956 52.749C191.669 52.6084 191.335 52.5059 190.954 52.4414C190.579 52.3711 190.181 52.3359 189.759 52.3359C189.267 52.3359 188.836 52.3682 188.467 52.4326C188.104 52.4912 187.796 52.582 187.544 52.7051C187.292 52.8223 187.09 52.9688 186.938 53.1445C186.791 53.3145 186.683 53.5107 186.612 53.7334L185.496 53.4697C185.684 52.8135 186.129 52.3037 186.832 51.9404C187.541 51.5771 188.505 51.3955 189.724 51.3955C190.339 51.3955 190.907 51.4482 191.429 51.5537C191.95 51.6592 192.398 51.8262 192.773 52.0547C193.154 52.2832 193.45 52.582 193.661 52.9512C193.878 53.3145 193.986 53.7568 193.986 54.2783V59.0068H196.078V60H192.896V59.0244ZM192.896 55.4297C191.613 55.4766 190.532 55.5615 189.653 55.6846C188.774 55.8018 188.062 55.957 187.518 56.1504C186.979 56.3379 186.589 56.5635 186.349 56.8271C186.114 57.085 185.997 57.3809 185.997 57.7148C185.997 58.2305 186.22 58.623 186.665 58.8926C187.116 59.1621 187.775 59.2969 188.643 59.2969C189.012 59.2969 189.404 59.2559 189.82 59.1738C190.242 59.0918 190.649 58.9893 191.042 58.8662C191.435 58.7373 191.795 58.5938 192.123 58.4355C192.451 58.2773 192.709 58.1221 192.896 57.9697V55.4297Z" fill="white"/>
</svg>
