<svg width="35" height="35" viewBox="0 0 35 35" fill="none" xmlns="http://www.w3.org/2000/svg">
<path d="M13.0573 35C11.5438 35 9.986 34.8502 8.41882 34.5501C5.65856 34.0209 2.8644 32.2568 2.07373 31.7285L0 30.3432L2.24516 29.4411C4.6994 28.4551 6.19235 27.8434 8.04044 26.8855C6.18995 25.7905 4.76376 23.8209 4.07723 21.2747L3.55493 19.3373L3.98324 19.4173C3.57709 18.9171 3.25639 18.4094 3.00779 17.9478C2.12366 16.307 1.65557 14.3021 1.75517 12.584L1.85343 10.893L2.68202 11.2851C2.33248 10.4786 2.07987 9.61726 1.9314 8.71448C1.56958 6.51285 1.87239 4.17386 2.78429 2.1285L3.50606 0.509577L4.47136 1.92622C7.52428 6.40714 11.3911 9.06522 15.9805 9.84336C15.793 8.26456 15.9335 6.74091 16.3984 5.37516C16.9396 3.78495 17.9025 2.4365 19.1821 1.47532C20.6033 0.408109 22.3266 -0.109021 24.0348 0.0192014C25.8471 0.155254 27.4925 0.984945 28.7994 2.42018C29.4376 2.21757 29.9078 2.00126 30.5433 1.70893C30.9257 1.53307 31.3594 1.3334 31.902 1.10501L33.9015 0.263247L32.5976 4.81334C32.6835 4.80453 32.7722 4.79702 32.8649 4.79213L35 4.67402L33.738 6.78136C33.6657 6.90208 33.6472 6.93634 33.6216 6.98365C33.5199 7.17092 33.3933 7.40388 31.6611 10.23C31.2274 10.9377 31.0109 11.8593 31.0512 12.8257C31.2047 16.4982 30.836 19.8209 29.9545 22.7011C29.1209 25.4261 27.829 27.7641 26.1152 29.6502C23.9945 31.9837 21.2903 33.5814 18.0774 34.3984C16.5015 34.799 14.809 35 13.0573 35V35Z" fill="black"/>
</svg>
