<svg width="275" height="228" viewBox="0 0 275 228" fill="none" xmlns="http://www.w3.org/2000/svg">
<path fill-rule="evenodd" clip-rule="evenodd" d="M138.408 6.13764C137.941 5.95492 137.423 5.95409 136.956 6.13534L11.3401 54.8555L137.683 103.267L199.711 79.2751L136.475 51.3225C134.959 50.6526 134.274 48.8811 134.944 47.3657C135.614 45.8503 137.385 45.1649 138.9 45.8347L207.625 76.2137L262.844 54.8555L138.408 6.13764ZM268.116 59.2494L210.549 81.5161V94.3131L266.83 72.8094C267.605 72.5135 268.116 71.7703 268.116 70.9411V59.2494ZM204.549 96.6056V83.8368L140.688 108.538V121.005L204.549 96.6056ZM134.688 121.02V108.545L6 59.2347V70.9296C6 71.761 6.51441 72.5058 7.29201 72.8001L48.1187 88.2532L134.688 121.02ZM204.549 103.029V170.859C180.082 183.199 159.299 189.13 138.659 189.048C112.183 188.944 85.4742 178.946 51.0559 158.85C50.4401 158.49 50.0567 157.816 50.0567 157.127V95.4021L136.626 128.169L137.693 128.573L138.758 128.166L204.549 103.029ZM44.0567 93.1311L5.16804 78.4116C2.05761 77.2343 0 74.2554 0 70.9296V54.8724V52.8182L1.91518 52.0754L134.786 0.541349C136.655 -0.183623 138.729 -0.180326 140.596 0.550577L272.21 52.0789L274.116 52.8252V54.8724V70.9411C274.116 74.2578 272.07 77.2305 268.972 78.4142L233.207 92.0792V157.158C233.207 159.978 231.697 162.593 229.295 164.025C222.821 167.883 216.588 171.384 210.549 174.526V198.04C217.454 199.431 222.654 205.532 222.654 212.847C222.654 221.189 215.891 227.952 207.549 227.952C199.207 227.952 192.444 221.189 192.444 212.847C192.444 205.532 197.644 199.431 204.549 198.04V177.561C180.677 189.274 159.722 195.131 138.636 195.048C110.589 194.938 82.7772 184.319 48.0306 164.031C45.5935 162.608 44.0567 159.973 44.0567 157.127V93.1311ZM207.549 203.889C207.267 203.889 206.995 203.85 206.737 203.778C202.089 204.189 198.444 208.092 198.444 212.847C198.444 217.876 202.52 221.952 207.549 221.952C212.578 221.952 216.654 217.876 216.654 212.847C216.654 208.092 213.009 204.189 208.361 203.778C208.103 203.85 207.83 203.889 207.549 203.889ZM210.549 167.744V100.736L227.207 94.3716V157.158C227.207 157.84 226.83 158.509 226.224 158.871C220.818 162.092 215.603 165.049 210.549 167.744ZM71.9582 148.639C70.5617 147.748 68.7068 148.157 67.8152 149.553C66.9236 150.95 67.3329 152.805 68.7294 153.696C85.7648 164.573 99.8618 171.41 115.194 174.814C130.516 178.217 146.842 178.14 168.259 175.545C169.904 175.346 171.075 173.851 170.876 172.206C170.677 170.561 169.182 169.389 167.537 169.589C146.439 172.145 130.876 172.151 116.495 168.957C102.123 165.766 88.7 159.328 71.9582 148.639Z" fill="#06D6A0"/>
</svg>
