<svg width="222" height="199" viewBox="0 0 222 199" fill="none" xmlns="http://www.w3.org/2000/svg">
<path d="M57.5 40.5H8C5.23858 40.5 3 42.7386 3 45.5V111.877C3 113.788 4.08831 115.534 5.80994 116.363C8.40716 117.613 10.9697 118.823 13.5 119.991M57.5 40.5V8C57.5 5.23858 59.7386 3 62.5 3H156C158.761 3 161 5.23858 161 8V40.5M57.5 40.5H161M161 40.5H213.5C216.261 40.5 218.5 42.7386 218.5 45.5V111.79C218.5 113.746 217.36 115.524 215.578 116.329C212.331 117.797 209.14 119.209 206 120.563M206 120.563V190.5C206 193.261 203.761 195.5 201 195.5H18.5C15.7386 195.5 13.5 193.261 13.5 190.5V119.991M206 120.563C130.895 152.969 85.1096 153.045 13.5 119.991" stroke="#06D6A0" stroke-width="6" stroke-linecap="round"/>
<mask id="path-2-inside-1" fill="white">
<rect x="91" y="118" width="40" height="50" rx="5"/>
</mask>
<rect x="91" y="118" width="40" height="50" rx="5" stroke="#06D6A0" stroke-width="12" stroke-linecap="round" mask="url(#path-2-inside-1)"/>
<line x1="70.9969" y1="53.4938" x2="144.997" y2="53.4938" stroke="#06D6A0" stroke-width="6" stroke-linecap="round"/>
</svg>
