<svg width="781" height="1725" viewBox="0 0 781 1725" fill="none" xmlns="http://www.w3.org/2000/svg">
<path fill-rule="evenodd" clip-rule="evenodd" d="M13.5 508V188H0V153H13.5V0.5H19.5V153H35V188H19.5V508H35V543H19.5V756.5C19.5 757.605 20.3954 758.5 21.5 758.5H759C763.418 758.5 767 762.082 767 766.5V946H781V981H767V1353H781V1388H767V1614C767 1618.42 763.418 1622 759 1622H414.5C413.395 1622 412.5 1622.9 412.5 1624V1724.5H406.5V1624C406.5 1619.58 410.082 1616 414.5 1616H759C760.105 1616 761 1615.1 761 1614V1388H746V1353H761V981H746V946H761V766.5C761 765.395 760.105 764.5 759 764.5H21.5C17.0817 764.5 13.5 760.918 13.5 756.5V543H0V508H13.5Z" fill="white"/>
</svg>
