<svg width="1190" height="832" viewBox="0 0 1190 832" fill="none" xmlns="http://www.w3.org/2000/svg">
<path fill-rule="evenodd" clip-rule="evenodd" d="M1155 0H1190V35H1175.5V225C1175.5 229.418 1171.92 233 1167.5 233H8.50001C7.39543 233 6.5 233.895 6.5 235V544C6.5 545.105 7.39543 546 8.5 546H268C272.418 546 276 549.582 276 554V797H291V832H256V797H270V554C270 552.895 269.105 552 268 552H8.5C4.08172 552 0.5 548.418 0.5 544V235C0.5 230.582 4.08174 227 8.50001 227H1167.5C1168.6 227 1169.5 226.105 1169.5 225V35H1155V0Z" fill="white"/>
</svg>
