<svg width="412" height="788" viewBox="0 0 412 788" fill="none" xmlns="http://www.w3.org/2000/svg">
<path fill-rule="evenodd" clip-rule="evenodd" d="M377 0H412V35H396.5L396.5 171.5C396.5 175.918 392.918 179.5 388.5 179.5H8C6.89543 179.5 6 180.395 6 181.5L6.00009 661.5C6.00009 662.605 6.89552 663.5 8.00009 663.5H210.5C214.918 663.5 218.5 667.082 218.5 671.5V753H233V788H198V753H212.5V671.5C212.5 670.395 211.605 669.5 210.5 669.5H8.00009C3.58181 669.5 9.05991e-05 665.918 8.96454e-05 661.5L0 181.5C0 177.082 3.58172 173.5 8 173.5H388.5C389.605 173.5 390.5 172.605 390.5 171.5L390.5 35H377V0Z" fill="white"/>
</svg>
