<svg width="171" height="225" viewBox="0 0 171 225" fill="none" xmlns="http://www.w3.org/2000/svg">
<path d="M49.4844 142.438H43.4844V148.438H49.4844V142.438ZM55.1094 107.141L60.2611 110.216L60.2711 110.2L60.281 110.183L55.1094 107.141ZM75.0781 88.5781L78.2671 93.6605L78.275 93.6555L75.0781 88.5781ZM91.3906 75.6406L86.882 71.6818L86.8544 71.7132L86.8272 71.7451L91.3906 75.6406ZM91.1094 53.1406L87.8117 58.1531L87.8583 58.1838L87.9054 58.2136L91.1094 53.1406ZM27.5469 64.6719L22.2041 67.4022L24.9748 72.8241L30.3554 69.974L27.5469 64.6719ZM8 26.4219L5.02768 21.2098L0.0492916 24.0489L2.65722 29.1522L8 26.4219ZM140.188 87.3125L135.135 84.0766L135.13 84.0839L135.126 84.0912L140.188 87.3125ZM114.875 110.797L111.651 105.737L111.632 105.749L111.614 105.761L114.875 110.797ZM96.3125 124.859L91.7268 120.99L91.721 120.997L91.7153 121.004L96.3125 124.859ZM92.6562 142.438V148.438H98.6562V142.438H92.6562ZM50.8906 171.688L46.8142 167.285L46.7937 167.304L46.7733 167.323L50.8906 171.688ZM94.625 171.828L90.4647 176.152L90.5063 176.192L90.5486 176.231L94.625 171.828ZM94.3438 211.484L90.3477 207.009L90.3276 207.027L90.3077 207.045L94.3438 211.484ZM51.3125 211.625L47.3164 216.101L47.3388 216.121L47.3615 216.14L51.3125 211.625ZM55.4844 142.438V130.344H43.4844V142.438H55.4844ZM55.4844 130.344C55.4844 121.965 57.1917 115.357 60.2611 110.216L49.9576 104.065C45.527 111.486 43.4844 120.347 43.4844 130.344H55.4844ZM60.281 110.183C63.3533 104.96 69.1284 99.3946 78.2671 93.6605L71.8892 83.4957C61.9028 89.7617 54.3655 96.5714 49.9378 104.099L60.281 110.183ZM78.275 93.6555C86.0495 88.7605 92.0873 84.0657 95.954 79.5362L86.8272 71.7451C84.1314 74.903 79.2943 78.8333 71.8812 83.5007L78.275 93.6555ZM95.8993 79.5994C100.204 74.6963 102.453 68.894 102.453 62.4219H90.4531C90.4531 65.8873 89.3268 68.8974 86.882 71.6818L95.8993 79.5994ZM102.453 62.4219C102.453 56.2581 99.4698 51.3244 94.3133 48.0677L87.9054 58.2136C89.8739 59.4568 90.4531 60.7106 90.4531 62.4219H102.453ZM94.4071 48.1281C89.5835 44.9547 83.6879 43.625 77.1875 43.625V55.625C82.1246 55.625 85.5103 56.6391 87.8117 58.1531L94.4071 48.1281ZM77.1875 43.625C61.6767 43.625 44.1338 49.096 24.7383 59.3698L30.3554 69.974C48.835 60.1853 64.3858 55.625 77.1875 55.625V43.625ZM32.8897 61.9416L13.3428 23.6916L2.65722 29.1522L22.2041 67.4022L32.8897 61.9416ZM10.9723 31.6339C33.4648 18.8069 56.8218 12.4531 81.125 12.4531V0.453125C54.6157 0.453125 29.2227 7.41187 5.02768 21.2098L10.9723 31.6339ZM81.125 12.4531C101.213 12.4531 116.164 16.8709 126.678 24.9846L134.009 15.4842C120.711 5.22284 102.85 0.453125 81.125 0.453125V12.4531ZM126.678 24.9846C137.023 32.9672 142.203 43.6815 142.203 57.7812H154.203C154.203 40.1935 147.477 25.8766 134.009 15.4842L126.678 24.9846ZM142.203 57.7812C142.203 68.1484 139.774 76.8328 135.135 84.0766L145.24 90.5484C151.288 81.1047 154.203 70.1016 154.203 57.7812H142.203ZM135.126 84.0912C130.498 91.3628 122.819 98.6215 111.651 105.737L118.099 115.857C130.181 108.16 139.377 99.7622 145.249 90.5338L135.126 84.0912ZM111.614 105.761C101.9 112.051 94.9291 117.195 91.7268 120.99L100.898 128.729C102.758 126.524 108.163 122.292 118.136 115.833L111.614 105.761ZM91.7153 121.004C88.312 125.062 86.6562 129.92 86.6562 135.266H98.6562C98.6562 132.549 99.438 130.47 100.91 128.715L91.7153 121.004ZM86.6562 135.266V142.438H98.6562V135.266H86.6562ZM92.6562 136.438H49.4844V148.438H92.6562V136.438ZM49.4375 191.656C49.4375 184.222 51.5394 179.324 55.0079 176.052L46.7733 167.323C40.3044 173.426 37.4375 181.84 37.4375 191.656H49.4375ZM54.9671 176.09C58.5345 172.787 64.2465 170.656 73.1094 170.656V158.656C62.4722 158.656 53.3717 161.213 46.8142 167.285L54.9671 176.09ZM73.1094 170.656C81.502 170.656 86.9658 172.785 90.4647 176.152L98.7853 167.505C92.3467 161.309 83.4668 158.656 73.1094 158.656V170.656ZM90.5486 176.231C94.1046 179.523 96.2188 184.372 96.2188 191.656H108.219C108.219 181.878 105.27 173.508 98.7014 167.426L90.5486 176.231ZM96.2188 191.656C96.2188 198.872 94.0556 203.698 90.3477 207.009L98.3398 215.96C105.132 209.896 108.219 201.503 108.219 191.656H96.2188ZM90.3077 207.045C86.5479 210.463 81.0649 212.516 73.1094 212.516V224.516C83.1538 224.516 91.8271 221.881 98.3798 215.924L90.3077 207.045ZM73.1094 212.516C64.7946 212.516 59.1018 210.468 55.2635 207.11L47.3615 216.14C54.0232 221.969 62.8617 224.516 73.1094 224.516V212.516ZM55.3086 207.149C51.6148 203.851 49.4375 198.989 49.4375 191.656H37.4375C37.4375 201.573 40.5102 210.024 47.3164 216.101L55.3086 207.149Z" fill="#06D6A0"/>
<path d="M86 20C111.515 21.998 121.57 28.47 130 52" stroke="#06D6A0" stroke-width="6" stroke-linejoin="round"/>
</svg>
